<svg xmlns="http://www.w3.org/2000/svg" width="258.844" height="192.87" viewBox="0 0 258.844 192.87">
  <g id="Forgot_password-rafiki" data-name="Forgot password-rafiki" transform="translate(0 -55)">
    <g id="freepik--background-complete--inject-66" transform="translate(0 55)">
      <rect id="Rectangle_101" data-name="Rectangle 101" width="258.844" height="0.129" transform="translate(0 169.491)" fill="#ebebeb"/>
      <rect id="Rectangle_102" data-name="Rectangle 102" width="13.18" height="0.129" transform="translate(150.238 173.016)" fill="#ebebeb"/>
      <rect id="Rectangle_103" data-name="Rectangle 103" width="31.232" height="0.129" transform="translate(204.544 175.817)" fill="#ebebeb"/>
      <rect id="Rectangle_104" data-name="Rectangle 104" width="32.267" height="0.129" transform="translate(115.165 173.078)" fill="#ebebeb"/>
      <rect id="Rectangle_105" data-name="Rectangle 105" width="6.751" height="0.129" transform="translate(87.489 176.951)" fill="#ebebeb"/>
      <rect id="Rectangle_106" data-name="Rectangle 106" width="30.74" height="0.129" transform="translate(100.799 176.951)" fill="#ebebeb"/>
      <rect id="Rectangle_107" data-name="Rectangle 107" width="19.905" height="0.129" transform="translate(27.158 174.766)" fill="#ebebeb"/>
      <path id="Path_554" data-name="Path 554" d="M141.121,201.4H41.161a2.956,2.956,0,0,1-2.951-2.956V57.93A2.956,2.956,0,0,1,41.161,55h99.96a2.956,2.956,0,0,1,2.956,2.956v140.49A2.956,2.956,0,0,1,141.121,201.4ZM41.161,55.1a2.827,2.827,0,0,0-2.821,2.827V198.446a2.827,2.827,0,0,0,2.821,2.827h99.96a2.832,2.832,0,0,0,2.827-2.827V57.93a2.832,2.832,0,0,0-2.827-2.827Z" transform="translate(-18.429 -55)" fill="#ebebeb"/>
      <path id="Path_555" data-name="Path 555" d="M357.421,201.4H257.456a2.961,2.961,0,0,1-2.956-2.956V57.93A2.961,2.961,0,0,1,257.456,55h99.965a2.956,2.956,0,0,1,2.946,2.93V198.446A2.956,2.956,0,0,1,357.421,201.4ZM257.456,55.1a2.832,2.832,0,0,0-2.827,2.827V198.446a2.832,2.832,0,0,0,2.827,2.827h99.965a2.832,2.832,0,0,0,2.827-2.827V57.93a2.832,2.832,0,0,0-2.827-2.827Z" transform="translate(-122.749 -55)" fill="#ebebeb"/>
      <path id="Path_556" data-name="Path 556" d="M161.991,273.242H127.616L125.53,249.17H159.9Z" transform="translate(-60.545 -148.651)" fill="#e6e6e6"/>
      <path id="Path_557" data-name="Path 557" d="M165.431,273.242H131.056L128.97,249.17h34.374Z" transform="translate(-62.204 -148.651)" fill="#f0f0f0"/>
      <path id="Path_558" data-name="Path 558" d="M141.009,272.884,139.86,259.15H163.9l1.149,13.734Z" transform="translate(-67.456 -153.464)" fill="#fff"/>
      <rect id="Rectangle_108" data-name="Rectangle 108" width="4.033" height="44.899" transform="translate(105.142 124.592)" fill="#e6e6e6"/>
      <rect id="Rectangle_109" data-name="Rectangle 109" width="2.801" height="44.899" transform="translate(107.648 124.592)" fill="#f0f0f0"/>
      <rect id="Rectangle_110" data-name="Rectangle 110" width="39.039" height="4.954" transform="translate(110.449 129.546) rotate(180)" fill="#f0f0f0"/>
      <rect id="Rectangle_111" data-name="Rectangle 111" width="4.033" height="39.945" transform="translate(68.754 129.546)" fill="#e6e6e6"/>
      <rect id="Rectangle_112" data-name="Rectangle 112" width="2.801" height="39.945" transform="translate(71.26 129.546)" fill="#f0f0f0"/>
      <rect id="Rectangle_113" data-name="Rectangle 113" width="4.033" height="39.945" transform="translate(40.048 129.546)" fill="#e6e6e6"/>
      <rect id="Rectangle_114" data-name="Rectangle 114" width="2.801" height="39.945" transform="translate(42.554 129.546)" fill="#f0f0f0"/>
      <rect id="Rectangle_115" data-name="Rectangle 115" width="4.033" height="39.945" transform="translate(79.62 129.546)" fill="#e6e6e6"/>
      <rect id="Rectangle_116" data-name="Rectangle 116" width="2.801" height="39.945" transform="translate(82.121 129.546)" fill="#f0f0f0"/>
      <rect id="Rectangle_117" data-name="Rectangle 117" width="31.362" height="4.954" transform="translate(40.048 124.592)" fill="#e6e6e6"/>
      <rect id="Rectangle_118" data-name="Rectangle 118" width="121.31" height="67.538" transform="translate(67.046 12.637)" fill="#e0e0e0"/>
      <rect id="Rectangle_119" data-name="Rectangle 119" width="127.361" height="67.538" transform="translate(67.657 12.637)" fill="#f5f5f5"/>
      <rect id="Rectangle_120" data-name="Rectangle 120" width="63.375" height="123.199" transform="translate(192.937 14.718) rotate(90)" fill="#fff"/>
      <path id="Path_559" data-name="Path 559" d="M195.307,146.805l23.26-63.375H180.18l-23.26,63.375Z" transform="translate(-75.684 -68.712)" fill="#f5f5f5"/>
      <path id="Path_560" data-name="Path 560" d="M275.459,146.805l23.26-63.375H269.76L246.5,146.805Z" transform="translate(-118.89 -68.712)" fill="#f5f5f5"/>
      <rect id="Rectangle_121" data-name="Rectangle 121" width="10.312" height="64.504" transform="translate(216.492 104.987)" fill="#e6e6e6"/>
      <path id="Path_561" data-name="Path 561" d="M430.222,377.775h2.713V372.81H427.38Z" transform="translate(-206.131 -208.284)" fill="#fafafa"/>
      <rect id="Rectangle_122" data-name="Rectangle 122" width="10.312" height="64.504" transform="translate(121.413 104.987)" fill="#e6e6e6"/>
      <rect id="Rectangle_123" data-name="Rectangle 123" width="97.444" height="63.163" transform="translate(129.36 104.987)" fill="#fafafa"/>
      <path id="Path_562" data-name="Path 562" d="M347.2,280.549H253.45V262.71H347.2Zm-93.236-.518h92.718v-16.8H253.968Z" transform="translate(-122.242 -155.181)" fill="#e6e6e6"/>
      <path id="Path_563" data-name="Path 563" d="M340.852,273.454H281.924c-2.733,0-5.368-2.205-7.248-6.057l-.176-.368h73.77l-.176.368C346.2,271.249,343.611,273.454,340.852,273.454Zm-65.5-5.922c1.75,3.432,4.142,5.389,6.575,5.389h58.928c2.443,0,4.825-1.957,6.575-5.389Z" transform="translate(-132.395 -157.265)" fill="#e6e6e6"/>
      <path id="Path_564" data-name="Path 564" d="M252.593,377.775H249.88V372.81h5.555Z" transform="translate(-120.52 -208.284)" fill="#fafafa"/>
      <path id="Path_565" data-name="Path 565" d="M347.2,319.4H253.45V301.58H347.2Zm-93.236-.518h92.718V302.1H253.968Z" transform="translate(-122.242 -173.929)" fill="#e6e6e6"/>
      <path id="Path_566" data-name="Path 566" d="M340.852,312.32H281.924c-2.733,0-5.368-2.211-7.248-6.057l-.176-.373h73.77l-.176.373C346.2,310.088,343.611,312.32,340.852,312.32Zm-65.5-5.912c1.75,3.432,4.142,5.394,6.575,5.394h58.928c2.443,0,4.825-1.962,6.575-5.394Z" transform="translate(-132.395 -176.007)" fill="#e6e6e6"/>
      <path id="Path_567" data-name="Path 567" d="M347.2,358.279H253.45V340.44H347.2Zm-93.236-.518h92.718v-16.8H253.968Z" transform="translate(-122.242 -192.671)" fill="#e6e6e6"/>
      <path id="Path_568" data-name="Path 568" d="M340.852,351.185H281.924c-2.733,0-5.368-2.205-7.248-6.052l-.176-.373h73.77l-.176.373C346.2,348.979,343.611,351.185,340.852,351.185Zm-65.5-5.907c1.75,3.432,4.142,5.389,6.575,5.389h58.928c2.443,0,4.825-1.957,6.575-5.389Z" transform="translate(-132.395 -194.755)" fill="#e6e6e6"/>
      <path id="Path_569" data-name="Path 569" d="M109.173,274.28v1.253h-.8l-.663,9.821H97.96l-.657-9.821h-.8V274.28Z" transform="translate(-46.543 -160.761)" fill="#e6e6e6"/>
      <path id="Path_570" data-name="Path 570" d="M85.624,216.676c-.8-5.85-8.692-7.517-18.709-7.734-9.531-.2-12.585-3.572-12.585-3.572s.031,13.651,13.765,18.6C81.136,228.661,86.427,222.536,85.624,216.676Z" transform="translate(-26.204 -127.525)" fill="#e6e6e6"/>
      <path id="Path_571" data-name="Path 571" d="M105.359,246.463c.166-2.4,4.007-6.823,13.248-4.814,6.678,1.455,9.163-2.009,9.163-2.009a14.807,14.807,0,0,1-10.664,12.709C107.564,255.14,105.064,250.7,105.359,246.463Z" transform="translate(-50.805 -144.054)" fill="#e6e6e6"/>
      <path id="Path_572" data-name="Path 572" d="M107,253.968a.357.357,0,0,0,.274-.124c.668-.792.119-2.687-.637-5.311-.973-3.365-2.185-7.558-1.16-10.6a42.627,42.627,0,0,1,1.988-4.7c1.45-3.065,2.7-5.695,1.657-8.48a.357.357,0,1,0-.668.254c.937,2.48-.2,4.882-1.636,7.926a44.31,44.31,0,0,0-2.019,4.773c-1.092,3.251.15,7.563,1.149,11.022.59,2.071,1.2,4.142.782,4.659a.352.352,0,0,0,.041.518A.342.342,0,0,0,107,253.968Z" transform="translate(-50.343 -136.764)" fill="#e6e6e6"/>
    </g>
    <g id="freepik--Shadow--inject-66" transform="translate(29.047 236.149)">
      <ellipse id="freepik--path--inject-66" cx="100.374" cy="5.86" rx="100.374" ry="5.86" fill="#f5f5f5"/>
    </g>
    <g id="freepik--Login--inject-66" transform="translate(51.867 91.544)">
      <path id="Path_573" data-name="Path 573" d="M177.724,250.9H104.212L100.19,132.68H173.7Z" transform="translate(-100.19 -129.01)" fill="#6c0e0f"/>
      <path id="Path_574" data-name="Path 574" d="M184.809,243.814H111.3L107.27,125.59h73.512Z" transform="translate(-103.605 -125.59)" fill="#6c0e0f"/>
      <path id="Path_575" data-name="Path 575" d="M184.809,243.814H111.3L107.27,125.59h73.512Z" transform="translate(-103.605 -125.59)" fill="#fff" opacity="0.3"/>
      <ellipse id="Ellipse_96" data-name="Ellipse 96" cx="20.33" cy="21.034" rx="20.33" ry="21.034" transform="matrix(0.701, -0.713, 0.713, 0.701, 12.323, 33.656)" fill="#6c0e0f"/>
      <path id="Path_576" data-name="Path 576" d="M181.657,175.173a16.566,16.566,0,0,1-1.786,8.128,16.354,16.354,0,0,1-14.7,8.935,17.736,17.736,0,0,1-15.3-8.935,17.337,17.337,0,0,1-2.34-8.128,16.38,16.38,0,0,1,16.483-17.084A17.788,17.788,0,0,1,181.657,175.173Z" transform="translate(-123.013 -141.265)" fill="#fff"/>
      <path id="Path_577" data-name="Path 577" d="M182.045,202.55a16.354,16.354,0,0,1-14.7,8.935,17.736,17.736,0,0,1-15.3-8.935A26.19,26.19,0,0,1,166.9,198,27.686,27.686,0,0,1,182.045,202.55Z" transform="translate(-125.198 -160.514)" fill="#6c0e0f" opacity="0.6"/>
      <ellipse id="Ellipse_97" data-name="Ellipse 97" cx="7.475" cy="7.734" rx="7.475" ry="7.734" transform="matrix(0.701, -0.713, 0.713, 0.701, 30.621, 27.969)" fill="#6c0e0f" opacity="0.6"/>
      <path id="Path_578" data-name="Path 578" d="M184.538,262.578H137.646l-.316-9.318h46.892Z" transform="translate(-118.103 -187.167)" fill="#fff"/>
      <path id="Path_579" data-name="Path 579" d="M185.633,294.748h-46.9l-.316-9.318h46.9Z" transform="translate(-118.629 -202.683)" fill="#fff"/>
      <path id="Path_580" data-name="Path 580" d="M183.481,287.9l-11.3,1.553a.787.787,0,0,0-.683.932l1.486,7.574a.911.911,0,0,0,1,.709l11.3-1.553a.792.792,0,0,0,.678-.937l-1.481-7.574A.906.906,0,0,0,183.481,287.9Zm-3.246,7.672-2.071.274-.2-2.443a1.45,1.45,0,0,1-.844-1.035,1.289,1.289,0,0,1,1.118-1.553,1.481,1.481,0,0,1,1.636,1.154,1.268,1.268,0,0,1-.4,1.206Z" transform="translate(-134.575 -203.872)" fill="#6c0e0f"/>
      <path id="Path_581" data-name="Path 581" d="M182.79,281.3h0a.808.808,0,0,1-.89-.626l-.145-.74a4.261,4.261,0,0,0-4.462-3.4,3.624,3.624,0,0,0-3.344,4.343l.166.854a.694.694,0,0,1-.606.828h0a.8.8,0,0,1-.89-.626l-.14-.72a5.1,5.1,0,0,1,4.141-6.083,5.8,5.8,0,0,1,6.626,4.488l.166.849a.694.694,0,0,1-.621.828Z" transform="translate(-135.002 -197.678)" fill="#6c0e0f"/>
      <path id="Path_582" data-name="Path 582" d="M186.04,322.987H155.512l-.2-6.067h30.523Z" transform="translate(-126.775 -217.871)" fill="#6c0e0f"/>
      <path id="Path_583" data-name="Path 583" d="M183.04,260.673a1.636,1.636,0,0,1-1.646,1.7,1.781,1.781,0,0,1-1.765-1.7,1.636,1.636,0,0,1,1.646-1.7A1.776,1.776,0,0,1,183.04,260.673Z" transform="translate(-138.504 -189.921)" fill="#263238"/>
      <path id="Path_584" data-name="Path 584" d="M168.825,260.673a1.631,1.631,0,0,1-1.646,1.7,1.776,1.776,0,0,1-1.76-1.7,1.636,1.636,0,0,1,1.646-1.7,1.771,1.771,0,0,1,1.76,1.7Z" transform="translate(-131.65 -189.921)" fill="#263238"/>
      <path id="Path_585" data-name="Path 585" d="M154.7,260.673a1.636,1.636,0,0,1-1.646,1.7,1.77,1.77,0,0,1-1.76-1.7,1.636,1.636,0,0,1,1.646-1.7A1.77,1.77,0,0,1,154.7,260.673Z" transform="translate(-124.835 -189.921)" fill="#263238"/>
      <path id="Path_586" data-name="Path 586" d="M197.215,260.688a1.636,1.636,0,0,1-1.646,1.7,1.77,1.77,0,0,1-1.76-1.7A1.631,1.631,0,0,1,195.461,259,1.77,1.77,0,0,1,197.215,260.688Z" transform="translate(-145.343 -189.935)" fill="#263238"/>
      <path id="Path_587" data-name="Path 587" d="M211.385,260.673a1.631,1.631,0,0,1-1.646,1.7,1.776,1.776,0,0,1-1.76-1.7,1.636,1.636,0,0,1,1.646-1.7A1.771,1.771,0,0,1,211.385,260.673Z" transform="translate(-152.177 -189.921)" fill="#263238"/>
    </g>
    <g id="freepik--Character--inject-66" transform="translate(143.048 92.558)">
      <path id="Path_588" data-name="Path 588" d="M329.507,174.28c.689,1.108,1.263,2.164,1.853,3.267s1.123,2.211,1.646,3.344a47.813,47.813,0,0,1,2.64,7.108c.093.305.16.632.238.947l.114.481.057.238.067.393a7.082,7.082,0,0,1-.16,2.671,15.138,15.138,0,0,1-1.615,3.857,30.659,30.659,0,0,1-4.6,6.021l-2.179-1.646a57.674,57.674,0,0,0,2.915-6.212,12.871,12.871,0,0,0,.792-2.915,2.308,2.308,0,0,0-.041-.916l-.207-.632c-.083-.259-.16-.518-.259-.782a58.715,58.715,0,0,0-2.728-6.254c-1.035-2.071-2.148-4.141-3.261-6.119Z" transform="translate(-299.693 -150.088)" fill="#ff8b7b"/>
      <path id="Path_589" data-name="Path 589" d="M329.021,224.43l-2.381,1.258,2.733,3.2a4.241,4.241,0,0,0,1.786-2.915Z" transform="translate(-300.59 -174.276)" fill="#ff8b7b"/>
      <path id="Path_590" data-name="Path 590" d="M320.47,228.832l2.925,2.324,3-1.1-2.733-3.2Z" transform="translate(-297.615 -175.448)" fill="#ff8b7b"/>
      <path id="Path_591" data-name="Path 591" d="M300.5,141c-.057.29-.259.492-.445.456s-.3-.305-.238-.59.259-.518.45-.456S300.556,140.711,300.5,141Z" transform="translate(-287.645 -133.748)" fill="#263238"/>
      <path id="Path_592" data-name="Path 592" d="M298.954,142.52a10.489,10.489,0,0,1-1.874,2.185,1.7,1.7,0,0,0,1.325.518Z" transform="translate(-286.333 -134.77)" fill="#ff5652"/>
      <path id="Path_593" data-name="Path 593" d="M298.9,158.976v-3.4l4.494.518s-.072,2.92-2.588,3.779Z" transform="translate(-287.211 -141.069)" fill="#ff8b7b"/>
      <path id="Path_594" data-name="Path 594" d="M300.214,150.86l3.163.911.057,2.076-4.493-.544Z" transform="translate(-287.23 -138.793)" fill="#ff8b7b"/>
      <path id="Path_595" data-name="Path 595" d="M303.989,151.771l-3.163-.911-.616,1.18a5.037,5.037,0,0,0,2.92,4.39,4.949,4.949,0,0,0,.916-2.588Z" transform="translate(-287.843 -138.793)" opacity="0.2"/>
      <path id="Path_596" data-name="Path 596" d="M302.428,138.08a.176.176,0,0,0,.129-.29,1.719,1.719,0,0,0-1.47-.569.171.171,0,0,0-.14.2.176.176,0,0,0,.2.145h0a1.362,1.362,0,0,1,1.16.461.176.176,0,0,0,.124.057Z" transform="translate(-288.198 -132.21)" fill="#263238"/>
      <path id="Path_597" data-name="Path 597" d="M309.13,151.68c-.518,2.666-.839,6.357,1.035,8.133,0,0-.725,2.7-5.695,2.7-5.441,0-2.614-2.371-2.614-2.371,2.262-.7,2.242-3.277,1.724-5.348Z" transform="translate(-288.283 -139.188)" fill="#ff8b7b"/>
      <path id="Path_598" data-name="Path 598" d="M311.347,167.373c.487-.683.466-2.852-.052-3.236-.833-.616-4.411-.761-9.22.347a3.384,3.384,0,0,1-.6,3.2Z" transform="translate(-288.455 -144.967)" fill="#6c0e0f"/>
      <path id="Path_599" data-name="Path 599" d="M350.847,407.521a1.185,1.185,0,0,1-.911-.052.352.352,0,0,1-.083-.4.4.4,0,0,1,.223-.254c.492-.238,1.62.223,1.672.243a.083.083,0,0,1,.052.078.1.1,0,0,1-.047.083A5.093,5.093,0,0,1,350.847,407.521Zm-.6-.585a.435.435,0,0,0-.1.036.217.217,0,0,0-.135.145c-.047.155,0,.207.031.223.2.166.921,0,1.434-.192A2.843,2.843,0,0,0,350.251,406.936Z" transform="translate(-311.772 -262.211)" fill="#6c0e0f"/>
      <path id="Path_600" data-name="Path 600" d="M352.256,406.308h-.041c-.414-.119-1.294-.745-1.3-1.154a.285.285,0,0,1,.223-.28.445.445,0,0,1,.378.031c.487.248.8,1.253.808,1.3a.083.083,0,0,1,0,.083A.072.072,0,0,1,352.256,406.308Zm-1.035-1.289h-.041c-.1.036-.1.088-.1.114,0,.243.59.735,1.035.932a2.155,2.155,0,0,0-.663-1.035.3.3,0,0,0-.223-.01Z" transform="translate(-312.296 -261.293)" fill="#6c0e0f"/>
      <path id="Path_601" data-name="Path 601" d="M298.81,408.6c-.466,0-.916-.067-1.066-.274a.326.326,0,0,1,0-.378.43.43,0,0,1,.274-.2c.606-.166,1.879.559,1.931.59a.078.078,0,0,1,.041.088.083.083,0,0,1-.067.073,6.316,6.316,0,0,1-1.113.1Zm-.575-.709a.517.517,0,0,0-.166,0,.264.264,0,0,0-.171.119c-.062.109-.036.16,0,.192.171.238,1.087.243,1.765.145a3.939,3.939,0,0,0-1.429-.456Z" transform="translate(-286.624 -262.681)" fill="#6c0e0f"/>
      <path id="Path_602" data-name="Path 602" d="M300.805,407.692h-.036c-.44-.2-1.31-.984-1.242-1.4,0-.1.083-.217.321-.238a.621.621,0,0,1,.476.145,2.475,2.475,0,0,1,.569,1.4.1.1,0,0,1-.036.078A.1.1,0,0,1,300.805,407.692Zm-.89-1.475h-.052c-.155,0-.166.073-.166.093-.041.248.549.87,1,1.139a2,2,0,0,0-.481-1.123.455.455,0,0,0-.305-.109Z" transform="translate(-287.511 -261.875)" fill="#6c0e0f"/>
      <path id="Path_603" data-name="Path 603" d="M305.992,401.2h-3.639l-.362-8.433h3.639Z" transform="translate(-288.701 -255.469)" fill="#ff8b7b"/>
      <path id="Path_604" data-name="Path 604" d="M354.7,398.483l-3.557.771L347.57,391.4l3.562-.771Z" transform="translate(-310.685 -254.437)" fill="#ff8b7b"/>
      <path id="Path_605" data-name="Path 605" d="M348.989,405.788l4-.865a.316.316,0,0,1,.352.176l1.387,3.013a.518.518,0,0,1-.383.745c-1.4.274-2.1.342-3.852.72-1.082.238-3.525.833-5.022,1.154s-2.009-1.113-1.424-1.377a10.136,10.136,0,0,0,4.411-3.225A.885.885,0,0,1,348.989,405.788Z" transform="translate(-308.874 -261.327)" fill="#263238"/>
      <path id="Path_606" data-name="Path 606" d="M294.553,408.24h3.976a.321.321,0,0,1,.311.248l.72,3.236a.518.518,0,0,1-.518.652c-1.434-.026-3.5-.109-5.306-.109-2.112,0-3.929.114-6.4.114-1.5,0-1.91-1.512-1.284-1.651,2.847-.621,5.177-.689,7.636-2.205A1.692,1.692,0,0,1,294.553,408.24Z" transform="translate(-280.876 -262.93)" fill="#263238"/>
      <path id="Path_607" data-name="Path 607" d="M326.9,168.907c3.412.782,6.212,9.494,6.212,9.494l-6.818,5.213a14.976,14.976,0,0,1-3.624-6.73C321.46,172.318,323.406,168.1,326.9,168.907Z" transform="translate(-298.501 -147.449)" fill="#6c0e0f"/>
      <path id="Path_608" data-name="Path 608" d="M326.9,168.907c3.412.782,6.212,9.494,6.212,9.494l-6.818,5.213a14.976,14.976,0,0,1-3.624-6.73C321.46,172.318,323.406,168.1,326.9,168.907Z" transform="translate(-298.501 -147.449)" opacity="0.4"/>
      <path id="Path_609" data-name="Path 609" d="M286.767,174.639c-.849.916-1.7,1.734-2.588,2.588-.44.414-.885.828-1.341,1.227l-.689.606-.171.15-.3.238a4.142,4.142,0,0,1-1,.59,3.257,3.257,0,0,1-1.263.259,3.106,3.106,0,0,1-1.087-.192,3.06,3.06,0,0,1-1.035-.657,3.106,3.106,0,0,1-.808-1.341,3.525,3.525,0,0,1-.15-.771,5.23,5.23,0,0,1,0-.921c.026-.248.057-.466.1-.668a12.819,12.819,0,0,1,.6-2.071,18.535,18.535,0,0,1,.8-1.874c.331-.657.647-1.139.963-1.688a42.268,42.268,0,0,1,4.374-5.933,40.082,40.082,0,0,1,5.306-5.032l1.905,1.962c-1.336,1.791-2.651,3.712-3.867,5.6a60.714,60.714,0,0,0-3.313,5.824c-.223.487-.518,1.035-.657,1.429a13.892,13.892,0,0,0-.481,1.4,9.029,9.029,0,0,0-.3,1.3,2.02,2.02,0,0,0,0,.207v-.047a1.44,1.44,0,0,0-.067-.342,2.221,2.221,0,0,0-.6-.963,2.537,2.537,0,0,0-.854-.518,2.475,2.475,0,0,0-.87-.16,2.112,2.112,0,0,0-.833.16,1.908,1.908,0,0,0-.259.129l.2-.181.626-.569,1.237-1.16c.818-.771,1.641-1.594,2.418-2.361Z" transform="translate(-276.321 -142.791)" fill="#ff8b7b"/>
      <path id="Path_610" data-name="Path 610" d="M324.112,181.36c1.853,1.833,2.459,5.177,2.588,8.076l-.3.233a14.977,14.977,0,0,1-3.624-6.73c-.067-.269-.129-.518-.176-.813Z" transform="translate(-298.642 -153.503)" opacity="0.2"/>
      <path id="Path_611" data-name="Path 611" d="M288.93,171.722c-.745,3.934-1.211,12.016.947,28.012h19.5c.135-2.987-1.745-17.576,1.139-31.662a51.251,51.251,0,0,0-6.523-.823,72.33,72.33,0,0,0-8.283,0c-.911.083-1.812.217-2.588.357A5.177,5.177,0,0,0,288.93,171.722Z" transform="translate(-282.102 -146.64)" fill="#6c0e0f"/>
      <path id="Path_612" data-name="Path 612" d="M288.93,171.722c-.745,3.934-1.211,12.016.947,28.012h19.5c.135-2.987-1.745-17.576,1.139-31.662a51.251,51.251,0,0,0-6.523-.823,72.33,72.33,0,0,0-8.283,0c-.911.083-1.812.217-2.588.357A5.177,5.177,0,0,0,288.93,171.722Z" transform="translate(-282.102 -146.64)" opacity="0.4"/>
      <path id="Path_613" data-name="Path 613" d="M291.915,186.484l-3.52-.844c-.109,2.133-.119,4.773.036,8.04C290.051,191.837,292.122,188.958,291.915,186.484Z" transform="translate(-282.105 -155.568)" opacity="0.2"/>
      <path id="Path_614" data-name="Path 614" d="M301.99,392.77l.186,4.349h3.645l-.186-4.349Z" transform="translate(-288.701 -255.469)" opacity="0.2"/>
      <path id="Path_615" data-name="Path 615" d="M351.132,390.63l-3.562.771,1.843,4.048,3.562-.771Z" transform="translate(-310.685 -254.437)" opacity="0.2"/>
      <path id="Path_616" data-name="Path 616" d="M309.83,138.342c-.932,3.489-1.3,5.581-3.458,7.03a4.772,4.772,0,0,1-7.377-4.007c-.114-3.329,1.434-8.48,5.177-9.184a4.928,4.928,0,0,1,5.658,6.16Z" transform="translate(-287.254 -129.743)" fill="#ff8b7b"/>
      <path id="Path_617" data-name="Path 617" d="M303.646,139.334c-.176-.466-.978-4.074-.223-5.011s9.375-.259,10.649.994c2.117,2.071.647,3.934-1.667,6.331-1.739,1.8-1.807,3.831-2.687,4.141-1.553.518-3.924.031-4.4-1.61S303.646,139.334,303.646,139.334Z" transform="translate(-289.239 -130.605)" fill="#263238"/>
      <path id="Path_618" data-name="Path 618" d="M311.237,128.156c-3.044-1.294-8.754.14-11.84-.606a4.752,4.752,0,0,0,3.94,4.846,40.718,40.718,0,0,0,7.765.72C314.488,132.96,313.825,129.258,311.237,128.156Z" transform="translate(-287.449 -127.55)" fill="#263238"/>
      <path id="Path_619" data-name="Path 619" d="M323.19,136.286a5.8,5.8,0,0,0,3.225-.616C326.985,137.047,323.853,137.425,323.19,136.286Z" transform="translate(-298.926 -131.466)" fill="#263238"/>
      <path id="Path_620" data-name="Path 620" d="M304.714,143.281a4.1,4.1,0,0,1-1.035,2.418c-.8.875-1.626.326-1.765-.735-.124-.963.135-2.588,1.108-3.054S304.781,142.2,304.714,143.281Z" transform="translate(-288.65 -134.408)" fill="#ff8b7b"/>
      <path id="Path_621" data-name="Path 621" d="M304.69,230.13s4.141,27.826,6.4,38.252c2.48,11.415,15.805,49.18,15.805,49.18l6.518-1.413s-9.318-30.782-11.389-46.742c-1.6-12.259-4.758-39.287-4.758-39.287Z" transform="translate(-290.004 -177.021)" fill="#6c0e0f"/>
      <path id="Path_622" data-name="Path 622" d="M344.57,393.5c-.026,0,1.217,2.361,1.217,2.361l7.33-1.589-.616-2.205Z" transform="translate(-309.238 -255.131)" fill="#263238"/>
      <path id="Path_623" data-name="Path 623" d="M308.737,249.254c4.778.937,4.271,18.756,3.7,27.924-1.377-6.481-3.4-18.947-4.773-27.795A1.631,1.631,0,0,1,308.737,249.254Z" transform="translate(-291.436 -186.23)" opacity="0.3"/>
      <path id="Path_624" data-name="Path 624" d="M291.094,230.121s-.518,27.225-.1,38.309c.414,11.55,4.447,49.367,4.447,49.367h6.171s.223-37.144.518-48.487c.3-12.362,1.791-39.21,1.791-39.21Z" transform="translate(-283.319 -177.011)" fill="#6c0e0f"/>
      <path id="Path_625" data-name="Path 625" d="M297.438,394.8c-.031,0,.347,2.557.347,2.557h7.5l.207-2.283Z" transform="translate(-286.505 -256.448)" fill="#263238"/>
      <path id="Path_626" data-name="Path 626" d="M292.183,173.416c1.745,4.706-8.511,10.25-8.511,10.25l-4.442-5.695s2.987-5.912,6.611-8.573C290.319,166.116,290.852,169.833,292.183,173.416Z" transform="translate(-277.724 -147.122)" fill="#6c0e0f"/>
      <path id="Path_627" data-name="Path 627" d="M292.183,173.416c1.745,4.706-8.511,10.25-8.511,10.25l-4.442-5.695s2.987-5.912,6.611-8.573C290.319,166.116,290.852,169.833,292.183,173.416Z" transform="translate(-277.724 -147.122)" opacity="0.4"/>
    </g>
    <g id="freepik--Thinking--inject-66" transform="translate(170.195 59.312)">
      <ellipse id="Ellipse_98" data-name="Ellipse 98" cx="18.683" cy="11.907" rx="18.683" ry="11.907" transform="translate(8.811)" fill="#6c0e0f"/>
      <path id="Path_628" data-name="Path 628" d="M364,88.141A5.234,5.234,0,0,1,358.86,83.8a5.291,5.291,0,0,1,3.991-5.964h0a5.208,5.208,0,0,1,5.6,2.34L380.448,77.7a1.874,1.874,0,0,1,2.2,1.289,1.807,1.807,0,0,1-1.382,2.231l-.311.062a.306.306,0,0,0-.217.16.326.326,0,0,0,0,.269l.212.549a.823.823,0,0,1-.321,1,.984.984,0,0,0-.461.73.813.813,0,0,1-.626.72l-.243.052a.808.808,0,0,1-.859-.414,1.009,1.009,0,0,0-1.869.388.8.8,0,0,1-.621.714l-.243.052a.813.813,0,0,1-.859-.414,1.035,1.035,0,0,0-.72-.487.823.823,0,0,1-.725-.813V83.2a.321.321,0,0,0-.383-.3l-3.826.787a5.213,5.213,0,0,1-4.116,4.349,5.363,5.363,0,0,1-1.072.109ZM362.965,78.3a4.768,4.768,0,0,0-3.624,5.394,4.716,4.716,0,0,0,9.318-.269v-.186l4.219-.854a.839.839,0,0,1,1.035.787v.59a.305.305,0,0,0,.249.3,1.507,1.507,0,0,1,1.092.74.3.3,0,0,0,.305.166l.238-.052a.29.29,0,0,0,.217-.269,1.527,1.527,0,0,1,2.847-.6.3.3,0,0,0,.3.166l.249-.052a.29.29,0,0,0,.212-.269,1.5,1.5,0,0,1,.709-1.113.316.316,0,0,0,.109-.373l-.212-.549a.833.833,0,0,1,.611-1.118l.316-.067a1.3,1.3,0,0,0,.989-1.589,1.351,1.351,0,0,0-1.594-.916L368.22,80.728l-.093-.16a4.659,4.659,0,0,0-5.135-2.252ZM364,86.215a3.183,3.183,0,1,1,.673-.041h0a3.3,3.3,0,0,1-.668.052Zm0-6.114a3.106,3.106,0,0,0-.575.057,2.808,2.808,0,0,0,1.17,5.493h0a2.8,2.8,0,0,0,.973-5.079,2.754,2.754,0,0,0-1.548-.461Z" transform="translate(-343.247 -70.239)" fill="#fff"/>
      <ellipse id="Ellipse_99" data-name="Ellipse 99" cx="6.14" cy="3.914" rx="6.14" ry="3.914" transform="translate(6.15 22.97)" fill="#6c0e0f" opacity="0.6"/>
      <ellipse id="Ellipse_100" data-name="Ellipse 100" cx="2.521" cy="1.605" rx="2.521" ry="1.605" transform="translate(0 29.192)" fill="#6c0e0f" opacity="0.3"/>
    </g>
  </g>
</svg>
