<svg xmlns="http://www.w3.org/2000/svg" width="337.543" height="251.51" viewBox="0 0 337.543 251.51">
  <g id="Focus-rafiki" transform="translate(0 -55)">
    <g id="freepik--background-complete--inject-2" transform="translate(0 55)">
      <rect id="Rectangle_13" data-name="Rectangle 13" width="337.543" height="0.169" transform="translate(0 221.023)" fill="#ebebeb"/>
      <rect id="Rectangle_14" data-name="Rectangle 14" width="22.359" height="0.169" transform="translate(281.362 231.885)" fill="#ebebeb"/>
      <rect id="Rectangle_15" data-name="Rectangle 15" width="20.401" height="0.169" transform="translate(161.777 229.826)" fill="#ebebeb"/>
      <rect id="Rectangle_16" data-name="Rectangle 16" width="47.182" height="0.169" transform="translate(233.505 225.62)" fill="#ebebeb"/>
      <rect id="Rectangle_17" data-name="Rectangle 17" width="112.834" height="0.169" transform="translate(35.415 226.754)" fill="#ebebeb"/>
      <rect id="Rectangle_18" data-name="Rectangle 18" width="4.273" height="0.169" transform="translate(154.257 226.754)" fill="#ebebeb"/>
      <path id="Path_55" data-name="Path 55" d="M172.41,245.914H42.058a3.855,3.855,0,0,1-3.848-3.855V58.821A3.855,3.855,0,0,1,42.058,55H172.41a3.855,3.855,0,0,1,3.855,3.855v183.2A3.855,3.855,0,0,1,172.41,245.914ZM42.058,55.135a3.686,3.686,0,0,0-3.679,3.686V242.059a3.686,3.686,0,0,0,3.679,3.686H172.41a3.693,3.693,0,0,0,3.686-3.686V58.821a3.693,3.693,0,0,0-3.686-3.686Z" transform="translate(-12.415 -55)" fill="#ebebeb"/>
      <path id="Path_56" data-name="Path 56" d="M388.714,245.914H258.355a3.862,3.862,0,0,1-3.855-3.855V58.821A3.862,3.862,0,0,1,258.355,55H388.714a3.855,3.855,0,0,1,3.841,3.821V242.059A3.855,3.855,0,0,1,388.714,245.914ZM258.355,55.135a3.693,3.693,0,0,0-3.686,3.686V242.059a3.693,3.693,0,0,0,3.686,3.686H388.714a3.693,3.693,0,0,0,3.686-3.686V58.821a3.693,3.693,0,0,0-3.686-3.686Z" transform="translate(-82.691 -55)" fill="#ebebeb"/>
      <path id="Path_57" data-name="Path 57" d="M331.182,216.417c24.161,24.56,16.013,46.615-.311,80.025-.533,1.073-1.04,2.154-1.573,3.227h40.235c12.543-27.982,11.875-69.723-24.35-106.555-20.043-20.381-21.5-29.886-21.6-31.209.952-1.553,5.313-3.949,9.208-4.577,6.2-1.026,10.653-8.378,9.87-16.479s-6.4-13.88-12.644-12.982c-2.417.351-23.77,4.132-28.435,25.91C296.455,177.734,316.033,200.991,331.182,216.417Z" transform="translate(-97.717 -78.645)" fill="#ebebeb"/>
      <path id="Path_58" data-name="Path 58" d="M227.933,171.275l71.039,8.162c6.015.675,11.854-2.613,15.095-8.54,3.537-6.461,6.44-14.67,2.073-19.5a20.313,20.313,0,0,1-5.1-14.852c1.289-20.536-7.115-46.169-33.754-48.37-15.081-1.249-20.388,9.309-21.792,20.793-1.3,10.72-10.079,17.924-19.206,15.709-8.034-1.958-15.176.331-14.6,15.122.284,7.217-3.065,13.988-8.594,17.3C205.128,161.844,200.713,169.708,227.933,171.275Z" transform="translate(-67.262 -65.745)" fill="#e0e0e0"/>
      <path id="Path_59" data-name="Path 59" d="M153.316,341.87c.6.459,1.208.884,1.829,1.3h131.5c11.672-5.2,17.552-10.126,9.647-13.029a32.752,32.752,0,0,1-17.208-15.783c-4.51-9.087-17.971-10.282-30.1-9.262-10.288.851-22.534-7.514-27.57-19.118-5.36-12.341-15.8-24.924-36.07-24.3-32.289,1.04-42.578,23.169-36.272,47.567,1.951,7.534.223,14.406-4.807,17.761C139.632,330.1,146.842,336.928,153.316,341.87Z" transform="translate(-46.396 -122.143)" fill="#fafafa"/>
      <path id="Path_60" data-name="Path 60" d="M24.849,351.269a10.991,10.991,0,0,0,.844,1h101c11.233-4,17.883-7.777,13.083-10.012-4.28-1.992-6.751-6.616-6.353-12.118.513-6.98-9.33-7.9-19.078-7.129-8.27.675-14.042-5.765-12.827-14.676,1.256-9.485-1.289-19.145-17.134-18.653A51.982,51.982,0,0,0,35.792,326.21a22.881,22.881,0,0,1-11.416,13.637C19.462,342.237,22.027,347.475,24.849,351.269Z" transform="translate(-7.02 -131.246)" fill="#e6e6e6"/>
      <path id="Path_61" data-name="Path 61" d="M270.745,217.15l112.111-27.415c5.839-.675,11.112-4.638,14.224-11.422,2.356-5.151,3.038-10.849-3.024-13.765-6.98-3.375-12.071-9.944-14.487-17.687-5.745-18.41-25.653-37.13-63.742-33.329-19.746,1.965-26.5,10.282-27.476,19.577-1.478,13.988-12.341,24.3-25.525,24.452-11.038.115-20.023,3.166-18.653,13.225A26.544,26.544,0,0,1,233.75,195.7C225.764,201.6,233.345,221.484,270.745,217.15Z" transform="translate(-75.017 -73.857)" fill="#f5f5f5"/>
      <circle id="Ellipse_4" data-name="Ellipse 4" cx="17.113" cy="17.113" r="17.113" transform="translate(110.689 15.136) rotate(-22.5)" fill="#f0f0f0"/>
      <path id="Path_62" data-name="Path 62" d="M157.274,79.771c7.676-4.915,6.076-9.6-10-8.668s-18.68,8.25-18.68,8.25-24.3-.891-22.278,4.294c-13.86,1.222-17.64,2.424-8.1,3.051l69.655-4.827S170.357,78.657,157.274,79.771Z" transform="translate(-30.196 -60.193)" fill="#fafafa"/>
      <path id="Path_63" data-name="Path 63" d="M63.107,149.646l37.96-2.633s14.676-5.117,5.441-5c7.034-3.99,11.8-10.268-2.808-9.39s-19.355,9.4-19.355,9.4-14.278-4.5-19.577,4.6C61.318,146.864,44.6,150.928,63.107,149.646Z" transform="translate(-17.721 -80.193)" fill="#f5f5f5"/>
      <path id="Path_64" data-name="Path 64" d="M363.418,82.8l27.739-1.89s10.727-3.74,3.976-3.659c5.144-2.916,8.628-7.507-2.025-6.866s-14.143,6.872-14.143,6.872-10.43-3.288-14.305,3.375C362.115,80.764,349.9,83.734,363.418,82.8Z" transform="translate(-116.047 -59.978)" fill="#f5f5f5"/>
    </g>
    <g id="freepik--Shadow--inject-2" transform="translate(37.879 291.226)">
      <ellipse id="freepik--path--inject-2" cx="130.892" cy="7.642" rx="130.892" ry="7.642" fill="#f5f5f5"/>
    </g>
    <g id="freepik--Butterflies--inject-2" transform="translate(64.799 84.836)">
      <path id="Path_65" data-name="Path 65" d="M166.9,111.478c-.938-4.226-6.7-9.9-10.018-11.99s-3.672,7.588-2.977,10.95,3.045,7.946,5.4,9.053c-2.4.675-8.688,6.751-4.408,8.979s9.66-.776,9.66-.776Z" transform="translate(-114.655 -99.196)" fill="#6c0e0f"/>
      <path id="Path_66" data-name="Path 66" d="M183.035,149.45l-.135-.675a4.982,4.982,0,0,0,2.424-1.175l.452.506A5.711,5.711,0,0,1,183.035,149.45Z" transform="translate(-124.226 -114.923)" fill="#6c0e0f"/>
      <path id="Path_67" data-name="Path 67" d="M188.91,140.057l-.675-.122a10.8,10.8,0,0,0-1.215-6.508l.594-.317a11.436,11.436,0,0,1,1.3,6.947Z" transform="translate(-125.565 -110.215)" fill="#6c0e0f"/>
      <path id="Path_68" data-name="Path 68" d="M172.9,113.293c2.262-3.787,9.586-7.628,13.421-8.722s1.175,9.107-.783,11.949-4.327,6.278-6.947,6.683c2.079,1.3,4.57,8.972-.23,9.924s-8.432-3.713-8.432-3.713Z" transform="translate(-120.012 -100.916)" fill="#6c0e0f"/>
      <path id="Path_69" data-name="Path 69" d="M169.089,133.114l1.829-17.194a1.08,1.08,0,0,1,1.114-1.04l1.094.155a1.019,1.019,0,0,1,.736,1.3l-3.774,16.924C169.926,133.985,169.028,133.863,169.089,133.114Z" transform="translate(-119.737 -104.291)" fill="#263238"/>
      <path id="Path_70" data-name="Path 70" d="M172.811,112.759l-.405-.122c0-.047,1.526-5.326-1.775-7.217l.209-.371C174.431,107.109,172.905,112.53,172.811,112.759Z" transform="translate(-120.239 -101.098)" fill="#263238"/>
      <path id="Path_71" data-name="Path 71" d="M174.8,112.729l-.419-.054c.041-.317,1.053-7.716,5.191-7.905v.419C175.831,105.364,174.832,112.655,174.8,112.729Z" transform="translate(-121.458 -101.007)" fill="#263238"/>
      <path id="Path_72" data-name="Path 72" d="M110.3,167.474c.047-2.7,2.5-6.656,4.051-8.2s4.422,3.807,4.408,5.947-2.41,5.819-3.551,6.677c1.35.243,5.353,3.571,3.315,5.272s-5.225.223-5.225.223Z" transform="translate(-100.637 -118.628)" fill="#6c0e0f"/>
      <path id="Path_73" data-name="Path 73" d="M110.3,167.474c.047-2.7,2.5-6.656,4.051-8.2s4.422,3.807,4.408,5.947-2.41,5.819-3.551,6.677c1.35.243,5.353,3.571,3.315,5.272s-5.225.223-5.225.223Z" transform="translate(-100.637 -118.628)" fill="#fff" opacity="0.3"/>
      <path id="Path_74" data-name="Path 74" d="M105.319,169.554c-1.613-2.187-5.927-4.051-8.1-4.442s-1.073,5.866.277,7.493,4.408,3.477,5.846,3.537c-.965.959-1.465,5.914,1.195,6.157s4.091-2.923,4.091-2.923Z" transform="translate(-95.986 -120.607)" fill="#6c0e0f"/>
      <path id="Path_75" data-name="Path 75" d="M105.319,169.554c-1.613-2.187-5.927-4.051-8.1-4.442s-1.073,5.866.277,7.493,4.408,3.477,5.846,3.537c-.965.959-1.465,5.914,1.195,6.157s4.091-2.923,4.091-2.923Z" transform="translate(-95.986 -120.607)" fill="#fff" opacity="0.3"/>
      <path id="Path_76" data-name="Path 76" d="M113.09,181.107l-2.626-10.6a.675.675,0,0,0-.783-.554l-.675.189a.675.675,0,0,0-.351.878l3.814,10.261C112.638,181.722,113.2,181.567,113.09,181.107Z" transform="translate(-100.086 -122.183)" fill="#263238"/>
      <path id="Path_77" data-name="Path 77" d="M109.67,168.173c-.081-.169-1.951-4.28.122-5.873l.169.209c-1.91,1.465-.068,5.515-.047,5.556Z" transform="translate(-100.156 -119.699)" fill="#263238"/>
      <path id="Path_78" data-name="Path 78" d="M107.849,169.276s-.743-3.787-3.119-3.578v-.263c2.613-.243,3.375,3.632,3.375,3.794Z" transform="translate(-98.827 -120.714)" fill="#263238"/>
      <path id="Path_79" data-name="Path 79" d="M186.712,204.109c0-2.3-2.12-5.556-3.436-6.8s-3.814,3.443-3.814,5.266,2.025,4.847,3.024,5.529c-1.161.263-4.618,3.281-2.869,4.631s4.489-.047,4.489-.047Z" transform="translate(-123.002 -131.007)" fill="#6c0e0f"/>
      <path id="Path_80" data-name="Path 80" d="M186.712,204.109c0-2.3-2.12-5.556-3.436-6.8s-3.814,3.443-3.814,5.266,2.025,4.847,3.024,5.529c-1.161.263-4.618,3.281-2.869,4.631s4.489-.047,4.489-.047Z" transform="translate(-123.002 -131.007)" fill="#fff" opacity="0.7"/>
      <path id="Path_81" data-name="Path 81" d="M188.54,205.82c1.188-1.87,4.631-3.24,6.393-3.443s1.256,5.4.243,6.751-3.416,2.829-4.6,2.781c.864.938,1.586,5.468-.594,5.5s-3.558-2.95-3.558-2.95Z" transform="translate(-125.37 -132.719)" fill="#6c0e0f"/>
      <path id="Path_82" data-name="Path 82" d="M188.54,205.82c1.188-1.87,4.631-3.24,6.393-3.443s1.256,5.4.243,6.751-3.416,2.829-4.6,2.781c.864.938,1.586,5.468-.594,5.5s-3.558-2.95-3.558-2.95Z" transform="translate(-125.37 -132.719)" fill="#fff" opacity="0.7"/>
      <path id="Path_83" data-name="Path 83" d="M186,215.032l2.3-10.592c.081-.392.4-.675.675-.554l.581.189a.675.675,0,0,1,.3.871l-3.335,10.261C186.415,215.646,185.922,215.491,186,215.032Z" transform="translate(-125.23 -133.202)" fill="#263238"/>
      <path id="Path_84" data-name="Path 84" d="M190.44,202.093l-.23-.088c0-.047,1.634-4.1-.041-5.583l.162-.182C192.141,197.826,190.508,201.924,190.44,202.093Z" transform="translate(-126.588 -130.727)" fill="#263238"/>
      <path id="Path_85" data-name="Path 85" d="M191.093,203.212l-.243-.041c0-.162.675-4.051,2.984-3.787v.243C191.734,199.424,191.1,203.171,191.093,203.212Z" transform="translate(-126.809 -131.744)" fill="#263238"/>
    </g>
    <g id="freepik--Character--inject-2" transform="translate(158.966 112.074)">
      <path id="Path_86" data-name="Path 86" d="M313.121,172.591l-.918-3.321-5.063,4.26a30.852,30.852,0,0,0,3.078,1.992,1.688,1.688,0,0,0,2.282-.608l.412-.675a2.113,2.113,0,0,0,.209-1.647Z" transform="translate(-258.76 -149.202)" fill="#b55b52"/>
      <path id="Path_87" data-name="Path 87" d="M306.589,163.95l-2.309,4.82,1.944,3.031,5.063-4.26Z" transform="translate(-257.831 -147.473)" fill="#b55b52"/>
      <rect id="Rectangle_19" data-name="Rectangle 19" width="18.794" height="13.421" rx="4.08" transform="translate(40.68 7.451) rotate(7.37)" fill="#263238"/>
      <path id="Path_88" data-name="Path 88" d="M322.24,195.766c-3.1,0-8.817-2.626-16.2-8.648-8.027-6.569-7.264-11.726-6.71-15.527a9.242,9.242,0,0,0,.1-3.6l.709-.2a9.7,9.7,0,0,1-.081,3.9c-.56,3.794-1.256,8.52,6.447,14.852,9.823,8.04,16.027,9.492,17.289,7.959.817-.986-.317-3.72-4.726-7.426-4.942-4.118-5.191-10.423-5.367-15.021a18.228,18.228,0,0,0-.412-4.051l.675-.223a18.118,18.118,0,0,1,.452,4.26c.176,4.462.405,10.572,5.1,14.481,4.307,3.585,6.157,6.818,4.827,8.432a2.66,2.66,0,0,1-2.106.8Z" transform="translate(-256.119 -148.721)" fill="#263238"/>
      <path id="Path_89" data-name="Path 89" d="M313.424,154.819l-3.821-1.262a1.04,1.04,0,0,1-.675-1.073l.3-2.336a.675.675,0,0,1,.9-.547l3.821,1.262a1.046,1.046,0,0,1,.675,1.073l-.3,2.336a.675.675,0,0,1-.891.547Z" transform="translate(-259.339 -142.798)" fill="#263238"/>
      <path id="Path_90" data-name="Path 90" d="M312.118,149.789l-2.208-.729a.594.594,0,0,1-.392-.614l.169-1.35a.385.385,0,0,1,.52-.317l2.2.729a.6.6,0,0,1,.4.621l-.176,1.35a.371.371,0,0,1-.513.311Z" transform="translate(-259.532 -141.886)" fill="#263238"/>
      <rect id="Rectangle_20" data-name="Rectangle 20" width="9.998" height="11.625" rx="2.77" transform="translate(18.041 5.425) rotate(7.37)"/>
      <rect id="Rectangle_21" data-name="Rectangle 21" width="13.137" height="9.384" rx="4.68" transform="translate(22.352 7.113) rotate(7.37)" fill="#263238"/>
      <path id="Path_91" data-name="Path 91" d="M270.037,160.073h0a3.294,3.294,0,0,1-2.214-1.283,3.335,3.335,0,0,1-.675-2.464l.4-3.038a3.375,3.375,0,0,1,3.74-2.889.184.184,0,1,1-.047.365,2.977,2.977,0,0,0-3.328,2.572l-.4,3.038a3,3,0,0,0,2.572,3.335.175.175,0,0,1,.162.2.189.189,0,0,1-.209.162Z" transform="translate(-245.757 -143.063)" fill="#fff"/>
      <rect id="Rectangle_22" data-name="Rectangle 22" width="8.459" height="9.836" rx="2.34" transform="translate(28.866 7.729) rotate(7.37)" fill="#263238"/>
      <rect id="Rectangle_23" data-name="Rectangle 23" width="8.459" height="9.836" rx="2.34" transform="translate(30.118 7.895) rotate(7.37)"/>
      <rect id="Rectangle_24" data-name="Rectangle 24" width="11.112" height="7.939" rx="3.96" transform="translate(33.756 9.321) rotate(7.37)" fill="#263238"/>
      <path id="Path_92" data-name="Path 92" d="M286.7,161.815h0a2.862,2.862,0,0,1-2.464-3.2l.331-2.572a2.862,2.862,0,0,1,3.2-2.464.175.175,0,0,1,.155.2.189.189,0,0,1-.2.162,2.5,2.5,0,0,0-2.788,2.147l-.331,2.572a2.5,2.5,0,0,0,2.147,2.788.184.184,0,1,1-.047.365Z" transform="translate(-251.312 -144.096)" fill="#fff"/>
      <rect id="Rectangle_25" data-name="Rectangle 25" width="4.631" height="3.308" rx="1" transform="translate(52.28 10.558) rotate(7.37)" fill="#6c0e0f" opacity="0.6"/>
      <rect id="Rectangle_26" data-name="Rectangle 26" width="6.386" height="13.421" rx="3.193" transform="translate(40.681 7.451) rotate(7.37)"/>
      <path id="Path_93" data-name="Path 93" d="M300.084,178.862H299.9a3.42,3.42,0,0,0-.513.04c-7.979,5.333,1.067,9.343-.527,7.986l.277.068h.02l-.344-.04-.736-.088c-.5-.061-.992-.135-1.485-.209-.992-.142-1.985-.3-2.97-.473-1.985-.338-3.956-.763-5.927-1.242a47.445,47.445,0,0,1-11.854-4.449,19.526,19.526,0,0,1-2.984-2.086c-.243-.216-.486-.439-.722-.675l-.358-.378-.088-.095-.176-.2a4.226,4.226,0,0,1-.554-.844,4.59,4.59,0,0,1-.479-1.647,5.586,5.586,0,0,1,0-.675,2.089,2.089,0,0,1,.047-.547,6.467,6.467,0,0,1,.412-1.505,11.2,11.2,0,0,1,1-1.85c.344-.513.675-.972,1.026-1.4a30.591,30.591,0,0,1,2.106-2.383,66.833,66.833,0,0,1,9.127-7.8l2.768,2.957c-2.356,3-4.786,6.022-6.92,9-.527.743-1.026,1.492-1.465,2.208a11.422,11.422,0,0,0-.567,1.026,3.126,3.126,0,0,0-.284.749c0,.054,0,.068.047-.1a1.514,1.514,0,0,0,0-.182,1.486,1.486,0,0,0,0-.3,2.779,2.779,0,0,0-.635-1.505c-.108-.122-.061-.068-.047-.061l.034.034.155.142c.115.095.23.189.358.284a12.646,12.646,0,0,0,1.877,1.121,29.845,29.845,0,0,0,4.759,1.843c1.7.527,3.477.972,5.272,1.35s3.632.743,5.468,1.073c.918.162,1.843.311,2.768.446l1.391.209.675.108.371.054.25.04h.27l.3.074c-1.586-1.35,7.466,2.66-.52,7.993a3.876,3.876,0,0,1-.533.047h-.351Z" transform="translate(-246.844 -145.657)" fill="#b55b52"/>
      <path id="Path_94" data-name="Path 94" d="M293.851,152.43h2.491l-.864,3.375-4.658-1.674.81-.776a3.22,3.22,0,0,1,2.221-.925Z" transform="translate(-253.457 -143.73)" fill="#b55b52"/>
      <path id="Path_95" data-name="Path 95" d="M289.06,159.521l1.161-4.591,4.658,1.674s-.034,5.529-3.625,5.245Z" transform="translate(-252.886 -144.543)" fill="#b55b52"/>
      <path id="Path_96" data-name="Path 96" d="M333.329,194.116c-.405.149-.567.189-.817.27l-.675.182c-.425.108-.851.2-1.269.277-.837.162-1.661.25-2.478.331a29.1,29.1,0,0,1-4.854-.034,31.842,31.842,0,0,1-4.726-.749c-.77-.169-1.526-.385-2.268-.614l-.56-.169-.324-.1c-.176-.054-.358-.115-.533-.182a7.245,7.245,0,0,1-1.843-1.08,9,9,0,0,1-2.167-2.653,14.85,14.85,0,0,1-1.087-2.545,24.8,24.8,0,0,1-.932-4.726,38.816,38.816,0,0,1,.149-9.033H313a76.573,76.573,0,0,0,1.769,7.905,22.22,22.22,0,0,0,1.283,3.463,7.569,7.569,0,0,0,.763,1.283,1.552,1.552,0,0,0,.608.547c.04,0,.04,0,0-.047h.2l.473.088.945.162.952.122c.628.108,1.256.135,1.884.2a17.375,17.375,0,0,0,1.863.088,29.7,29.7,0,0,0,3.659-.135c.587-.061,1.175-.135,1.735-.236l.817-.155.365-.081a1.611,1.611,0,0,0,.2-.047Z" transform="translate(-259.235 -150.508)" fill="#b55b52"/>
      <path id="Path_97" data-name="Path 97" d="M331.8,165.2c-1.229,5.475-1.532,9.552-.425,13.873,0,0-1.235,4-8.574,4-8.1,0-3.706-4-3.706-4,4.449-1.053,4.462-4.327,3.807-7.392Z" transform="translate(-262.258 -147.88)" fill="#b55b52"/>
      <path id="Path_98" data-name="Path 98" d="M333.118,187.6c.628-1.269,1.35-2.7,0-3.18-1.431-.5-9.35-1.006-12.118-.068a2.923,2.923,0,0,0-2.1,3.51Z" transform="translate(-262.555 -153.933)" fill="#263238"/>
      <path id="Path_99" data-name="Path 99" d="M394.971,405.626a7.387,7.387,0,0,0,1.235-.945.149.149,0,0,0,.034-.155.128.128,0,0,0-.122-.088c-.257,0-2.491-.081-2.889.533a.446.446,0,0,0,0,.459.831.831,0,0,0,.614.5,1.816,1.816,0,0,0,1.127-.3Zm.783-.918a2.83,2.83,0,0,1-1.87.945.587.587,0,0,1-.419-.344.244.244,0,0,1,0-.189C393.668,404.816,394.863,404.7,395.754,404.708Z" transform="translate(-286.711 -225.61)" fill="#6c0e0f"/>
      <path id="Path_100" data-name="Path 100" d="M396.349,403.94a.144.144,0,0,0,.054-.2c-.04-.061-1.006-1.472-1.883-1.62a.8.8,0,0,0-.608.142h0a.466.466,0,0,0-.2.54c.216.635,1.883,1.168,2.579,1.154A.115.115,0,0,0,396.349,403.94Zm-2.221-1.485a.513.513,0,0,1,.338-.054c.56.095,1.215.864,1.526,1.262-.756-.1-1.9-.574-2.025-.952,0-.034-.034-.115.108-.223h0Z" transform="translate(-286.881 -224.856)" fill="#6c0e0f"/>
      <path id="Path_101" data-name="Path 101" d="M400.449,396.466l-3.929,3.193-9.35-9.606,3.922-3.193Z" transform="translate(-284.763 -219.9)" fill="#b55b52"/>
      <path id="Path_102" data-name="Path 102" d="M395.164,402.3l4.989-3.456a.452.452,0,0,1,.581.047l2.876,3.733a.83.83,0,0,1-.108,1.262,50.624,50.624,0,0,1-4.834,2.95c-1.424.81-2.511,4.138-7.392,4.138-2.214,0-2.957-1.762-2.025-2.025,4.8-1.465,4.935-4.051,5.4-5.853A1.35,1.35,0,0,1,395.164,402.3Z" transform="translate(-285.311 -223.765)" fill="#263238"/>
      <path id="Path_103" data-name="Path 103" d="M304.859,233.844h28.934c.331-3.976-1.208-21.785,2.133-40.505a6.433,6.433,0,0,0-5.785-7.514c-.824-.081-1.667-.148-2.511-.189a107.922,107.922,0,0,0-12.28,0c-1.816.169-3.6.459-5.043.743-2.349.466-4.543,2.127-4.894,4.5-2.181,14.616-.554,42.956-.554,42.956" transform="translate(-257.829 -154.463)" fill="#6c0e0f"/>
      <path id="Path_104" data-name="Path 104" d="M308.2,245.138h-8.54a3.065,3.065,0,0,1-3.1-3.47l.965-9.228a3.976,3.976,0,0,1,3.841-3.47h8.54a3.065,3.065,0,0,1,3.1,3.47l-1,9.228A3.963,3.963,0,0,1,308.2,245.138Z" transform="translate(-255.313 -168.599)" fill="#263238"/>
      <path id="Path_105" data-name="Path 105" d="M315.545,229l-1.735,16.168a3.963,3.963,0,0,0,3.835-3.47l1.019-9.249a3.065,3.065,0,0,0-3.119-3.45Z" transform="translate(-260.927 -168.609)"/>
      <path id="Path_106" data-name="Path 106" d="M319.715,218.436a.338.338,0,0,1-.216-.6c.189-.155,18.9-15.493,15.223-31.9a.338.338,0,0,1,.257-.405.331.331,0,0,1,.4.257c3.76,16.823-15.257,32.4-15.453,32.58A.344.344,0,0,1,319.715,218.436Z" transform="translate(-262.735 -154.481)" fill="#263238"/>
      <path id="Path_107" data-name="Path 107" d="M310.328,229.9H300.317a2.5,2.5,0,0,0-.972.216,3.922,3.922,0,0,0-1.519,2.653l-.466,4.287a1.674,1.674,0,0,0,.986.3h10.012a3.166,3.166,0,0,0,2.815-2.343l.736-2.754A1.714,1.714,0,0,0,310.328,229.9Z" transform="translate(-255.582 -168.902)"/>
      <path id="Path_108" data-name="Path 108" d="M308.131,236.47H298.119a1.711,1.711,0,0,1-1.58-2.356l.729-2.754a3.186,3.186,0,0,1,2.822-2.349H310.1a1.707,1.707,0,0,1,1.573,2.356l-.729,2.754a3.187,3.187,0,0,1-2.815,2.349Z" transform="translate(-255.288 -168.612)" fill="#263238"/>
      <path id="Path_109" data-name="Path 109" d="M304.913,200.6c-.25,2.869-.405,6-.493,9.2C307.64,206.223,309.834,201.768,304.913,200.6Z" transform="translate(-257.876 -159.382)" opacity="0.2"/>
      <path id="Path_110" data-name="Path 110" d="M308.444,196.843c-3.834,3.429-11.645-1.1-11.645-1.1L294.47,184.55a150.942,150.942,0,0,1,15.412.837C317.436,186.278,312.758,192.955,308.444,196.843Z" transform="translate(-254.643 -154.167)" fill="#6c0e0f"/>
      <g id="Group_540" data-name="Group 540" transform="translate(102.407 166.96)" opacity="0.2">
        <path id="Path_111" data-name="Path 111" d="M391.092,386.86l-3.922,3.2,4.82,4.948,3.929-3.2Z" transform="translate(-387.17 -386.86)"/>
      </g>
      <path id="Path_112" data-name="Path 112" d="M312.93,257.13s9.525,30.581,12.3,46.048c3.031,16.938,39.033,48.869,39.033,48.869l6.71-6.251s-22.177-29.582-29.6-41.079c-1.58-18.227-4.807-47.587-4.807-47.587Z" transform="translate(-260.641 -177.749)" fill="#263238"/>
      <path id="Path_113" data-name="Path 113" d="M384.88,393.23l3.139,2.316,8.452-7.25-2.262-2.525Z" transform="translate(-284.019 -219.546)" fill="#6c0e0f"/>
      <path id="Path_114" data-name="Path 114" d="M319.88,277.806c.763,2.66,1.559,5.5,2.343,8.378a32.262,32.262,0,0,0,4.854-13.914Z" transform="translate(-262.899 -182.668)" opacity="0.2"/>
      <path id="Path_115" data-name="Path 115" d="M317.88,156.839c-.061.432-.338.756-.621.729s-.466-.405-.405-.83.344-.763.628-.729S317.941,156.407,317.88,156.839Z" transform="translate(-261.913 -144.892)" fill="#263238"/>
      <path id="Path_116" data-name="Path 116" d="M316.692,158.37a16.41,16.41,0,0,1-2.592,3.483,2.493,2.493,0,0,0,2.025.594Z" transform="translate(-261.021 -145.66)" fill="#a02724"/>
      <path id="Path_117" data-name="Path 117" d="M318.047,152.8a.243.243,0,0,1-.162-.169.257.257,0,0,1,.182-.317,2.5,2.5,0,0,1,2.234.628.257.257,0,0,1,0,.365.25.25,0,0,1-.358,0,2.025,2.025,0,0,0-1.762-.513A.189.189,0,0,1,318.047,152.8Z" transform="translate(-262.248 -143.675)" fill="#263238"/>
      <path id="Path_118" data-name="Path 118" d="M332.318,153.961c-1.08,5.266-1.438,8.4-4.516,10.842a6.974,6.974,0,0,1-11.375-4.82c-.466-4.881,1.35-12.671,6.879-14.251a7.048,7.048,0,0,1,9.012,8.229Z" transform="translate(-261.755 -141.447)" fill="#b55b52"/>
      <path id="Path_119" data-name="Path 119" d="M320.872,154.6l-2.309.2s-.344-3.308,1.472-5.185c-1.215-.223-2.329-2.14-2.126-4.786.209-2.8,4.476-7.2,7.574-4.375,3.335,3.038,9.89,3.747,8.587,5.6,1.917-.358,6.454,5.975,1.917,9.08s-3,6.123-5.158,7.352S321.527,162.44,320.872,154.6Z" transform="translate(-262.251 -139.543)" fill="#263238"/>
      <path id="Path_120" data-name="Path 120" d="M341.482,148.04s.932-.857-.122-2.7C342.892,146.143,342.582,147.737,341.482,148.04Z" transform="translate(-269.879 -141.427)" fill="#263238"/>
      <path id="Path_121" data-name="Path 121" d="M323.962,160.453a6.393,6.393,0,0,1-2.025,3.375c-1.35,1.161-2.451.216-2.417-1.35,0-1.438.77-3.774,2.3-4.321S324.3,158.873,323.962,160.453Z" transform="translate(-262.782 -145.549)" fill="#b55b52"/>
      <path id="Path_122" data-name="Path 122" d="M246.821,407.922a7.258,7.258,0,0,0,1.546-.209.142.142,0,0,0,.041-.257c-.216-.135-2.12-1.3-2.775-.965a.432.432,0,0,0-.236.392.837.837,0,0,0,.29.743A1.776,1.776,0,0,0,246.821,407.922Zm1.141-.405a2.887,2.887,0,0,1-2.1-.108.574.574,0,0,1-.189-.506.189.189,0,0,1,.088-.169c.338-.169,1.424.331,2.2.756Z" transform="translate(-238.697 -226.259)" fill="#6c0e0f"/>
      <path id="Path_123" data-name="Path 123" d="M248.911,407.054a.1.1,0,0,0,.135-.128c0-.074-.142-1.776-.83-2.336a.776.776,0,0,0-.594-.182h0a.459.459,0,0,0-.446.371c-.122.675,1.06,1.951,1.667,2.282a.108.108,0,0,0,.068-.007Zm-1.181-2.39a.513.513,0,0,1,.324.121,3.376,3.376,0,0,1,.675,1.85c-.608-.459-1.35-1.438-1.283-1.829,0-.034,0-.115.2-.135h.081Z" transform="translate(-239.274 -225.6)" fill="#6c0e0f"/>
      <path id="Path_124" data-name="Path 124" d="M256.535,402.289h-5.4l-.054-12.509h5.4Z" transform="translate(-240.545 -220.849)" fill="#b55b52"/>
      <path id="Path_125" data-name="Path 125" d="M246.124,407.09h5.907a.446.446,0,0,1,.446.371l.884,4.8a.817.817,0,0,1-.817.959c-2.127-.034-5.191-.162-7.871-.162-3.126,0-3.274.176-6.947.176-2.214,0-2.748-2.241-1.809-2.444,4.26-.925,5.164-1.026,8.9-3.281a2.632,2.632,0,0,1,1.31-.419Z" transform="translate(-235.475 -226.473)" fill="#263238"/>
      <path id="Path_126" data-name="Path 126" d="M251.08,389.78l.027,6.447h5.4l-.027-6.447Z" transform="translate(-240.545 -220.849)" opacity="0.2"/>
      <path id="Path_127" data-name="Path 127" d="M286.151,257.13s-37.19,28.8-38.8,45.19c-1.667,17.053.365,49.362.365,49.362h9.147s5.218-33.511,6.278-50.341c19.956-19.577,41.707-25.127,47.8-44.211Z" transform="translate(-239.121 -177.749)" fill="#263238"/>
      <path id="Path_128" data-name="Path 128" d="M245.809,391.79c-.041,0,.371,3.8.371,3.8h11.125l.432-3.375Z" transform="translate(-238.832 -221.502)" fill="#6c0e0f"/>
    </g>
  </g>
</svg>
