<svg xmlns="http://www.w3.org/2000/svg" width="236.345" height="249.815" viewBox="0 0 236.345 249.815">
  <g id="Image_upload-bro" data-name="Image upload-bro" transform="translate(-75.511 -60.153)">
    <g id="freepik--background-simple--inject-2" transform="translate(75.511 94.863)">
      <path id="Path_1" data-name="Path 1" d="M272.88,149.4c-27.753-29.6-69.837-47.023-109.577-33.136-33.056,11.535-60.391,40.11-75.254,71.953-10.457,22.41-16.252,51.443-9.884,75.867,5.525,21.184,23.178,30.6,43.364,32.112,31.924,2.392,63.962-1.071,95.906-.458,22.673.431,57.271,8.82,77.484-4.642,19.1-12.721,17.909-40.427,15.814-60.755C307.62,200.011,293.282,171.167,272.88,149.4Z" transform="translate(-75.511 -111.408)" fill="#6c0e0f"/>
      <path id="Path_2" data-name="Path 2" d="M272.88,149.4c-27.753-29.6-69.837-47.023-109.577-33.136-33.056,11.535-60.391,40.11-75.254,71.953-10.457,22.41-16.252,51.443-9.884,75.867,5.525,21.184,23.178,30.6,43.364,32.112,31.924,2.392,63.962-1.071,95.906-.458,22.673.431,57.271,8.82,77.484-4.642,19.1-12.721,17.909-40.427,15.814-60.755C307.62,200.011,293.282,171.167,272.88,149.4Z" transform="translate(-75.511 -111.408)" fill="#fff" opacity="0.7"/>
    </g>
    <g id="freepik--Arrows--inject-2" transform="translate(85.082 141.731)">
      <path id="Path_3" data-name="Path 3" d="M109.629,294.718H94.806a.337.337,0,0,1-.337-.337V271.675h-4.4a.33.33,0,0,1-.3-.189.344.344,0,0,1,0-.357l12.128-15.308a.344.344,0,0,1,.526,0l12.128,15.308a.337.337,0,0,1-.263.546h-4.42v22.706A.337.337,0,0,1,109.629,294.718Zm-14.473-.674h14.149V271.338a.337.337,0,0,1,.337-.337h4.043l-11.454-14.426L90.776,271h4.043a.337.337,0,0,1,.337.337Z" transform="translate(-89.716 -205.347)" fill="#6c0e0f"/>
      <path id="Path_4" data-name="Path 4" d="M330.468,294.718H315.645a.337.337,0,0,1-.337-.337V271.675h-4.42a.337.337,0,0,1-.263-.546l12.162-15.308a.344.344,0,0,1,.526,0l12.162,15.308a.337.337,0,0,1-.263.546h-4.42v22.706A.337.337,0,0,1,330.468,294.718Zm-14.473-.674h14.149V271.338a.337.337,0,0,1,.337-.337h4.043L323.07,256.575,311.615,271h4.043a.337.337,0,0,1,.337.337Z" transform="translate(-161.757 -205.347)" fill="#6c0e0f"/>
      <path id="Path_5" data-name="Path 5" d="M386.2,350.671H371.374a.337.337,0,0,1-.337-.337V327.628h-4.4a.337.337,0,0,1-.263-.546l12.128-15.3a.344.344,0,0,1,.526,0l12.128,15.3a.337.337,0,0,1-.263.546h-4.42v22.706A.337.337,0,0,1,386.2,350.671ZM371.731,350h14.149V327.291a.337.337,0,0,1,.337-.337h4.043l-11.454-14.426-11.454,14.426h4.043a.344.344,0,0,1,.337.337Z" transform="translate(-179.944 -223.602)" fill="#6c0e0f"/>
      <path id="Path_6" data-name="Path 6" d="M363.358,219.988H348.534a.337.337,0,0,1-.337-.337V196.945h-4.42a.33.33,0,0,1-.3-.2.344.344,0,0,1,.04-.357l12.128-15.3a.35.35,0,0,1,.532,0l12.128,15.3a.344.344,0,0,1-.263.553h-4.42v22.706a.337.337,0,0,1-.263.337Zm-14.466-.674h14.149V196.608a.337.337,0,0,1,.337-.337h4.043l-11.454-14.432-11.454,14.432h4.043a.337.337,0,0,1,.337.337Z" transform="translate(-172.487 -180.968)" fill="#6c0e0f"/>
      <path id="Path_7" data-name="Path 7" d="M155.518,223.918H140.695a.337.337,0,0,1-.337-.337V200.875h-4.413a.337.337,0,0,1-.27-.546l12.162-15.308a.344.344,0,0,1,.526,0l12.162,15.308a.337.337,0,0,1-.263.546h-4.42v22.706A.337.337,0,0,1,155.518,223.918Zm-14.473-.674h14.149V200.538a.337.337,0,0,1,.337-.337h4.043L148.12,185.775,136.665,200.2h4.043a.337.337,0,0,1,.337.337Z" transform="translate(-104.685 -182.25)" fill="#6c0e0f"/>
      <path id="Path_8" data-name="Path 8" d="M190.518,350.671H175.695a.337.337,0,0,1-.337-.337V327.628h-4.42a.337.337,0,0,1-.263-.546l12.162-15.3a.344.344,0,0,1,.526,0l12.162,15.3a.337.337,0,0,1-.27.546h-4.413v22.706A.337.337,0,0,1,190.518,350.671ZM176.045,350h14.149V327.291a.337.337,0,0,1,.337-.337h4.043L183.12,312.529l-11.454,14.426h4.043a.337.337,0,0,1,.337.337Z" transform="translate(-116.103 -223.602)" fill="#6c0e0f"/>
    </g>
    <g id="freepik--Floor--inject-2" transform="translate(127.048 294.027)">
      <ellipse id="Ellipse_1" data-name="Ellipse 1" cx="68.725" cy="7.971" rx="68.725" ry="7.971" fill="#6c0e0f"/>
      <ellipse id="Ellipse_2" data-name="Ellipse 2" cx="68.725" cy="7.971" rx="68.725" ry="7.971" fill="#fff" opacity="0.5"/>
    </g>
    <g id="freepik--Cloud--inject-2" transform="translate(118.654 60.692)">
      <path id="Path_9" data-name="Path 9" d="M260.639,112.166A25.368,25.368,0,0,0,221.6,86.4a34.228,34.228,0,0,0-65.882,13.024v1.26a22.282,22.282,0,0,0,3.045,43.5v.236H259.548a16.171,16.171,0,0,0,1.092-32.247Z" transform="translate(-139.543 -62.16)" fill="#263238" stroke="#263238" stroke-linecap="round" stroke-linejoin="round" stroke-width="1"/>
      <path id="Path_10" data-name="Path 10" d="M260.639,107.666A25.368,25.368,0,0,0,221.6,81.9a34.228,34.228,0,0,0-65.882,13.017v1.26a22.282,22.282,0,0,0,3.045,43.5v.236H259.548a16.171,16.171,0,0,0,1.092-32.247Z" transform="translate(-139.543 -60.692)" fill="#6c0e0f" stroke="#263238" stroke-linecap="round" stroke-linejoin="round" stroke-width="1"/>
    </g>
    <g id="freepik--Character--inject-2" transform="translate(146.89 96.616)">
      <path id="Path_11" data-name="Path 11" d="M249.119,264.46l-4.238,2.223s-4.642,2.021-7.674,3.632-17.97,13.125-17.97,13.125l-3.025.2-1.819,1.213s-3.032.606-3.032,1.213.606.8,1.213.8a11.952,11.952,0,0,0,2.628-1s-2.055,3.005-1.247,3.005a31.469,31.469,0,0,1,3.483.559,39.529,39.529,0,0,1,4.043-.539c1.011,0,3.43-5.451,3.43-5.451s17.363-6.866,19.587-8.483,8.678-5.653,8.678-5.653Z" transform="translate(-191.207 -163.09)" fill="#fff" stroke="#263238" stroke-linecap="round" stroke-linejoin="round" stroke-width="1"/>
      <path id="Path_12" data-name="Path 12" d="M282.426,239.84,263.5,257.035l5.458,6.462,10.5-4.036,3.632-19.385Z" transform="translate(-208.216 -155.058)" fill="#6c0e0f" stroke="#263238" stroke-linecap="round" stroke-linejoin="round" stroke-width="1"/>
      <path id="Path_13" data-name="Path 13" d="M266.027,261.96l-2.527,2.291,5.458,6.462,3.254-1.253Z" transform="translate(-208.216 -162.274)" fill="#263238" stroke="#263238" stroke-linecap="round" stroke-linejoin="round" stroke-width="1"/>
      <path id="Path_14" data-name="Path 14" d="M339.018,399.482s6.01,6.253,6.623,9.318-.856,5.768-3.308,5.026-4.663-8.335-5.276-9.682-1.348-2.823-1.348-2.823S337.549,398.869,339.018,399.482Z" transform="translate(-231.773 -207.105)" fill="#6c0e0f" stroke="#263238" stroke-linecap="round" stroke-linejoin="round" stroke-width="1"/>
      <path id="Path_15" data-name="Path 15" d="M347.731,413.731c.445,2.924-1,5.39-3.369,4.716-.856-.249-1.678-1.348-2.412-2.7A4.865,4.865,0,0,1,347.731,413.731Z" transform="translate(-233.809 -211.706)" fill="#fff" stroke="#263238" stroke-linecap="round" stroke-linejoin="round" stroke-width="1"/>
      <path id="Path_16" data-name="Path 16" d="M340.71,413.943c1.348,1.839,3.059,3.814,4.353,3.47s1.974-2.776,2.21-4.043c.606,3.059-.862,5.741-3.308,5.006C342.765,418.033,341.633,416.045,340.71,413.943Z" transform="translate(-233.404 -211.668)" fill="#fff" stroke="#263238" stroke-linecap="round" stroke-linejoin="round" stroke-width="1"/>
      <path id="Path_17" data-name="Path 17" d="M338.569,404.105s2.7-1.476,2.823-.984-2.574,1.839-2.944,1.839S337.835,404.84,338.569,404.105Z" transform="translate(-232.55 -208.292)" fill="#fff" stroke="#263238" stroke-linecap="round" stroke-linejoin="round" stroke-width="0.5"/>
      <path id="Path_18" data-name="Path 18" d="M339.479,405.378s2.7-1.469,2.823-.977-2.574,1.839-2.944,1.839S338.745,406.119,339.479,405.378Z" transform="translate(-232.847 -208.709)" fill="#fff" stroke="#263238" stroke-linecap="round" stroke-linejoin="round" stroke-width="0.5"/>
      <path id="Path_19" data-name="Path 19" d="M340.389,406.655s2.7-1.476,2.823-.984-2.574,1.839-2.944,1.839S339.655,407.39,340.389,406.655Z" transform="translate(-233.144 -209.124)" fill="#fff" stroke="#263238" stroke-linecap="round" stroke-linejoin="round" stroke-width="0.5"/>
      <path id="Path_20" data-name="Path 20" d="M341.3,407.926s2.7-1.469,2.823-.984-2.574,1.839-2.944,1.839S340.565,408.661,341.3,407.926Z" transform="translate(-233.441 -209.539)" fill="#fff" stroke="#263238" stroke-linecap="round" stroke-linejoin="round" stroke-width="0.5"/>
      <path id="Path_21" data-name="Path 21" d="M262.562,407.88s2.345,3.268,2.554,5.121-1.348,1.9-3.328,1.691-4.346,1.253-7.135,1.179-6.017-1.294-4.467-2.621,5.592-2.419,6.468-3.18a15.181,15.181,0,0,0,1.469-1.476Z" transform="translate(-203.741 -209.877)" fill="#6c0e0f" stroke="#263238" stroke-linecap="round" stroke-linejoin="round" stroke-width="1"/>
      <path id="Path_22" data-name="Path 22" d="M250.185,415.338a8,8,0,0,1,1.779-1.058,5.929,5.929,0,0,1,2.924,3.679h-.243C251.856,417.885,248.635,416.665,250.185,415.338Z" transform="translate(-203.741 -211.965)" fill="#fff" stroke="#263238" stroke-linecap="round" stroke-linejoin="round" stroke-width="1"/>
      <path id="Path_23" data-name="Path 23" d="M260.283,410.49s2.877,1.5,2.149,1.8S259.522,410.9,260.283,410.49Z" transform="translate(-207.115 -210.728)" fill="#fff" stroke="#263238" stroke-linecap="round" stroke-linejoin="round" stroke-width="0.5"/>
      <path id="Path_24" data-name="Path 24" d="M258.623,410.94s2.877,1.5,2.149,1.8S257.862,411.351,258.623,410.94Z" transform="translate(-206.574 -210.875)" fill="#fff" stroke="#263238" stroke-linecap="round" stroke-linejoin="round" stroke-width="0.5"/>
      <path id="Path_25" data-name="Path 25" d="M257.663,411.6s2.877,1.5,2.149,1.8S256.9,412.011,257.663,411.6Z" transform="translate(-206.261 -211.09)" fill="#fff" stroke="#263238" stroke-linecap="round" stroke-linejoin="round" stroke-width="0.5"/>
      <path id="Path_26" data-name="Path 26" d="M255.921,412.4s2.877,1.5,2.149,1.8S255.146,412.8,255.921,412.4Z" transform="translate(-205.691 -211.351)" fill="#fff" stroke="#263238" stroke-linecap="round" stroke-linejoin="round" stroke-width="0.5"/>
      <path id="Path_27" data-name="Path 27" d="M249.867,416.333a9,9,0,0,0,6.691.99,41.291,41.291,0,0,1,6.414-.889,7.99,7.99,0,0,0,2.163-.364c-.054,1.462-1.509,1.489-3.369,1.294-1.981-.216-4.346,1.253-7.135,1.179C252.151,418.475,249.321,417.492,249.867,416.333Z" transform="translate(-203.747 -212.548)" fill="#fff" stroke="#263238" stroke-linecap="round" stroke-linejoin="round" stroke-width="1"/>
      <path id="Path_28" data-name="Path 28" d="M292.482,300.477s-1.415,19.7-.559,24.478,2.965,19,2.965,19a28.084,28.084,0,0,1,6.381,7.479c3.187,5.148,10.174,15.45,10.174,15.45a2.323,2.323,0,0,1-1.961,2.453s-1.105.492-1.718,0-21.561-19.863-24.034-23.906-5.761-28.919-5.761-28.919l-3.187-.613-13.476,25.752,2.345,31.3s.182,1.078-1.348,1.516-2.763.593-3.679-.2-8.011-35.07-7.412-36.3,14.2-34.929,14.2-34.929l1.1-2.816s12.876,1.469,18.637.364S292,298.617,292.482,300.477Z" transform="translate(-204.196 -174.487)" fill="#263238" stroke="#263238" stroke-linecap="round" stroke-linejoin="round" stroke-width="1"/>
      <line id="Line_1" data-name="Line 1" x1="6.994" y1="2.082" transform="translate(63.591 139.31)" fill="none" stroke="#fff" stroke-linecap="round" stroke-linejoin="round" stroke-width="1"/>
      <line id="Line_2" data-name="Line 2" x1="9.561" y1="1.105" transform="translate(60.283 140.658)" fill="none" stroke="#fff" stroke-linecap="round" stroke-linejoin="round" stroke-width="1"/>
      <path id="Path_29" data-name="Path 29" d="M308.107,306.66s-5.175,3.3,0,5.5" transform="translate(-222.018 -176.857)" fill="none" stroke="#fff" stroke-linecap="round" stroke-linejoin="round" stroke-width="1"/>
      <path id="Path_30" data-name="Path 30" d="M286.064,308.66l-.8,3.18-2.129,2.129,2.655,2.385" transform="translate(-214.623 -177.509)" fill="none" stroke="#fff" stroke-linecap="round" stroke-linejoin="round" stroke-width="1"/>
      <path id="Path_31" data-name="Path 31" d="M313.3,248.515c-4.716-3.827-10.572-8.449-10.572-8.449s-12.418-.283-16.972-.229l-6.4,20.429s-5.882,20.348-5.639,21.211,4.42,2.816,13.738,3.921,13.24-2.816,13.476-4.043a10.16,10.16,0,0,0-.243-3.315l3.187-5.64,10.545-17.343a5.047,5.047,0,0,0-1.118-6.542Z" transform="translate(-211.547 -155.055)" fill="#6c0e0f" stroke="#263238" stroke-linecap="round" stroke-linejoin="round" stroke-width="1"/>
      <path id="Path_32" data-name="Path 32" d="M318.582,245.566c-3.611-2.9-6.866-5.464-6.866-5.464s-4.124-.094-8.483-.162c-1.105,2.52-3.012,7.668-1.442,10.214C303.705,253.294,310.032,254.231,318.582,245.566Z" transform="translate(-220.514 -155.091)" fill="#263238" stroke="#263238" stroke-linecap="round" stroke-linejoin="round" stroke-width="1"/>
      <path id="Path_33" data-name="Path 33" d="M313.5,208.924s-3.551.984-5.026,3.187-5.761,15.086-5.64,16.171,5.64,0,5.64,0-3.8,7.971-3.8,9.318,1.718,2.089,3.921,1.6,9.729-13.428,9.729-13.428,2.23,2.587,3.638,1.7c1.617-1.017,1.105-3.066-.121-3.066s3.43-5.026,1.839-8.335S314.98,207.826,313.5,208.924Z" transform="translate(-221.049 -144.922)" fill="#fff" stroke="#263238" stroke-linecap="round" stroke-linejoin="round" stroke-width="1"/>
      <path id="Path_34" data-name="Path 34" d="M313.154,201.422s-6.866,0-7.236,3.308,3.194,4.784,7.115,4.171,7.479-.371,7.971.243-4.784,1.839-3.558,2.7a3.962,3.962,0,0,0,2.453.741s-1.718.485-1.6,1.711,1.193,6.643,2.021,6.643,2.493-.108,2.493-.108a15.5,15.5,0,0,0,4.171-3.066,6.662,6.662,0,0,0,0-8.577c-2.325-2.446-4.171-4.824-6.01-6.785s-3.558-4.043-7.236-4.535S308.127,198.841,313.154,201.422Z" transform="translate(-222.045 -141.334)" fill="#263238" stroke="#263238" stroke-linecap="round" stroke-linejoin="round" stroke-width="1"/>
      <path id="Path_35" data-name="Path 35" d="M337.92,222a7.769,7.769,0,0,1,.074,2.176" transform="translate(-232.494 -149.239)" fill="none" stroke="#fff" stroke-linecap="round" stroke-linejoin="round" stroke-width="1"/>
      <path id="Path_36" data-name="Path 36" d="M316.632,208.93s-7.526.734-4.716,2.17,7.2-1.253,12.674.916a7.028,7.028,0,0,1,4.117,3.948" transform="translate(-223.806 -144.975)" fill="none" stroke="#fff" stroke-linecap="round" stroke-linejoin="round" stroke-width="1"/>
      <path id="Path_37" data-name="Path 37" d="M326,217.41s5.141,2.513,5.821,6.165" transform="translate(-228.605 -147.741)" fill="none" stroke="#fff" stroke-linecap="round" stroke-linejoin="round" stroke-width="1"/>
      <path id="Path_38" data-name="Path 38" d="M311.21,236.931s5.889-.364,7.479-1.711" transform="translate(-223.781 -153.551)" fill="none" stroke="#263238" stroke-linecap="round" stroke-linejoin="round" stroke-width="1"/>
      <path id="Path_39" data-name="Path 39" d="M308.48,229.828s4.292,1.226,5.518-1.348" transform="translate(-222.89 -151.353)" fill="none" stroke="#263238" stroke-linecap="round" stroke-linejoin="round" stroke-width="1"/>
      <line id="Line_3" data-name="Line 3" x2="1.839" y2="0.741" transform="translate(90.374 76.636)" fill="none" stroke="#263238" stroke-linecap="round" stroke-linejoin="round" stroke-width="1"/>
      <path id="Path_40" data-name="Path 40" d="M308.64,222.11s-3.8.492-3.8,1.1,2.453,2.331,2.453,2.331" transform="translate(-221.702 -149.275)" fill="#fff" stroke="#263238" stroke-linecap="round" stroke-linejoin="round" stroke-width="1"/>
      <path id="Path_41" data-name="Path 41" d="M310.687,219.812c-.175.532-.532.889-.8.8s-.337-.586-.155-1.118.532-.889.8-.8S310.869,219.287,310.687,219.812Z" transform="translate(-223.265 -148.156)" fill="#263238"/>
      <path id="Path_42" data-name="Path 42" d="M315.487,222.242c-.182.532-.539.889-.8.8s-.337-.593-.162-1.118.539-.889.8-.8S315.656,221.71,315.487,222.242Z" transform="translate(-224.831 -148.949)" fill="#263238"/>
      <path id="Path_43" data-name="Path 43" d="M316.25,217.62s1.86.168,1.684,2.7Z" transform="translate(-225.425 -147.81)" fill="#263238" stroke="#263238" stroke-linecap="round" stroke-linejoin="round" stroke-width="1"/>
      <path id="Path_44" data-name="Path 44" d="M312.6,215.641s-1.017-1.348-2.365.505Z" transform="translate(-223.464 -147.01)" fill="#263238" stroke="#263238" stroke-linecap="round" stroke-linejoin="round" stroke-width="1"/>
      <path id="Path_45" data-name="Path 45" d="M246.348,138.5,228.6,116.16,210.86,138.5h6.94v33.628h21.608V138.5Z" transform="translate(-191.044 -114.711)" fill="#263238" stroke="#263238" stroke-linecap="round" stroke-linejoin="round" stroke-width="1"/>
      <path id="Path_46" data-name="Path 46" d="M246.348,136.346,228.6,114.01,210.86,136.346h6.94v33.628h21.608V136.346Z" transform="translate(-191.044 -114.01)" fill="#fff" stroke="#263238" stroke-linecap="round" stroke-linejoin="round" stroke-width="1"/>
      <rect id="Rectangle_11" data-name="Rectangle 11" width="72.168" height="72.168" transform="translate(0 52.171)" fill="#fff" stroke="#263238" stroke-linecap="round" stroke-linejoin="round" stroke-width="1"/>
      <rect id="Rectangle_12" data-name="Rectangle 12" width="65.458" height="65.458" transform="translate(3.355 55.526)" fill="#263238" stroke="#263238" stroke-linecap="round" stroke-linejoin="round" stroke-width="1"/>
      <path id="Path_47" data-name="Path 47" d="M236.707,228.531,221.44,244.486l-11.885-3.328a4.043,4.043,0,0,0-3.456.62L186.43,256.068v15.908h65.458V238.287l-9.366-9.763a4.043,4.043,0,0,0-5.815.007Z" transform="translate(-183.075 -150.966)" fill="#fff" stroke="#263238" stroke-linecap="round" stroke-linejoin="round" stroke-width="1"/>
      <circle id="Ellipse_3" data-name="Ellipse 3" cx="8.261" cy="8.261" r="8.261" transform="translate(16.847 77.639) rotate(-67.68)" fill="#fff" stroke="#263238" stroke-linecap="round" stroke-linejoin="round" stroke-width="1"/>
      <path id="Path_48" data-name="Path 48" d="M290.007,255.549,271.97,274.092l-27.49,7.573s-2.453-2.85-4.218-2.87-7.452,2.021-7.452,2.021-.721,1.765.674,1.779a24.8,24.8,0,0,0,4.252-.674l-7.8,1.348h0a2.54,2.54,0,0,0,2.486,2.143h3.51l6,.761,5.68-1.718s26.911-2.931,28.332-3.275,24.256-19.944,24.256-19.944,2.581-2.271,1.6-4.905-6.017-4.5-6.017-4.5" transform="translate(-197.268 -158.97)" fill="#fff" stroke="#263238" stroke-linecap="round" stroke-linejoin="round" stroke-width="1"/>
      <path id="Path_49" data-name="Path 49" d="M307.6,256.922,293.85,270.714l10.208,7.364,17.734-16.7a5.2,5.2,0,0,0,.91-6.455l-.061-.094a13.084,13.084,0,0,0-5.2-4.716" transform="translate(-218.117 -158.409)" fill="#6c0e0f" stroke="#263238" stroke-linecap="round" stroke-linejoin="round" stroke-width="1"/>
      <path id="Path_50" data-name="Path 50" d="M304.085,286.9l2.4-2.264-10.262-7.479-2.372,2.378Z" transform="translate(-218.117 -167.233)" fill="#263238" stroke="#263238" stroke-linecap="round" stroke-linejoin="round" stroke-width="1"/>
      <path id="Path_51" data-name="Path 51" d="M211.36,296.4l2.594,2.8,2.513.276-3.9-3.342Z" transform="translate(-191.207 -173.425)" fill="#fff" stroke="#263238" stroke-linecap="round" stroke-linejoin="round" stroke-width="1"/>
      <path id="Path_52" data-name="Path 52" d="M218.6,296.4l2.594,2.8,2.506.276-3.9-3.342Z" transform="translate(-193.569 -173.425)" fill="#fff" stroke="#263238" stroke-linecap="round" stroke-linejoin="round" stroke-width="1"/>
      <path id="Path_53" data-name="Path 53" d="M217.521,299.28l-2.931-3.76H216.4l3.625,3.76-1.536.283Z" transform="translate(-192.261 -173.222)" fill="#fff" stroke="#263238" stroke-linecap="round" stroke-linejoin="round" stroke-width="1"/>
      <path id="Path_54" data-name="Path 54" d="M209.84,296.826l1.253,2.365,2.365.141-2.594-2.8Z" transform="translate(-190.711 -173.552)" fill="#fff" stroke="#263238" stroke-linecap="round" stroke-linejoin="round" stroke-width="1"/>
    </g>
  </g>
</svg>
